<svg xmlns="http://www.w3.org/2000/svg" width="16.667" height="20" viewBox="0 0 16.667 20">
  <path id="file-invoice" d="M16.959,4.614l-2.9-2.9A5.8,5.8,0,0,0,9.93,0H6.167A4.17,4.17,0,0,0,2,4.167V15.834A4.172,4.172,0,0,0,6.167,20H14.5a4.172,4.172,0,0,0,4.167-4.167v-7.1a5.8,5.8,0,0,0-1.708-4.125ZM15.781,5.792a4.193,4.193,0,0,1,.671.875H12.834A.835.835,0,0,1,12,5.834V2.216a4.171,4.171,0,0,1,.875.671l2.9,2.9ZM17,15.834a2.5,2.5,0,0,1-2.5,2.5H6.167a2.5,2.5,0,0,1-2.5-2.5V4.167a2.5,2.5,0,0,1,2.5-2.5H9.929c.136,0,.271.007.4.019V5.834a2.5,2.5,0,0,0,2.5,2.5h4.148c.013.133.019.268.019.4Zm-3.75-5H7.417a2.086,2.086,0,0,0-2.083,2.083v1.667a2.086,2.086,0,0,0,2.083,2.083H13.25a2.086,2.086,0,0,0,2.083-2.083V12.917A2.086,2.086,0,0,0,13.25,10.834Zm.417,3.75A.417.417,0,0,1,13.25,15H7.417A.417.417,0,0,1,7,14.584V12.917a.417.417,0,0,1,.417-.417H13.25a.417.417,0,0,1,.417.417ZM5.333,8.334A.834.834,0,0,1,6.167,7.5H7.834a.833.833,0,1,1,0,1.667H6.167A.834.834,0,0,1,5.333,8.334ZM5.333,5a.834.834,0,0,1,.833-.833H7.834a.833.833,0,1,1,0,1.667H6.167A.834.834,0,0,1,5.333,5Z" transform="translate(-2 -0.001)"/>
</svg>
