<svg xmlns="http://www.w3.org/2000/svg" width="20.005" height="20" viewBox="0 0 20.005 20">
  <g id="Group_1792" data-name="Group 1792" transform="translate(-0.002 -4.859)">
    <path id="megaphone" d="M14.167,0a.833.833,0,0,0-.833.833c0,2.457-2.153,3.333-4.167,3.333H3.333A3.333,3.333,0,0,0,0,7.5V9.167a3.316,3.316,0,0,0,1.262,2.591L4.238,18.4A2.694,2.694,0,0,0,6.7,20a2.485,2.485,0,0,0,2.267-3.5l-1.833-4H9.167c2.014,0,4.167.876,4.167,3.333a.833.833,0,1,0,1.667,0v-15A.833.833,0,0,0,14.167,0ZM7.447,17.182A.819.819,0,0,1,6.7,18.333a1.027,1.027,0,0,1-.938-.612L3.421,12.5H5.3Zm5.886-5.016a6.436,6.436,0,0,0-4.167-1.333H3.333A1.667,1.667,0,0,1,1.667,9.167V7.5A1.667,1.667,0,0,1,3.333,5.833H9.167A6.436,6.436,0,0,0,13.333,4.5Zm6.583.71a.833.833,0,0,1-1.118.373l-1.667-.833a.834.834,0,1,1,.745-1.492l1.667.833a.833.833,0,0,1,.373,1.114Zm-3.158-7.5a.833.833,0,0,1,.373-1.118L18.8,3.425a.834.834,0,0,1,.745,1.492l-1.667.833A.833.833,0,0,1,16.758,5.377Zm-.092,2.957A.833.833,0,0,1,17.5,7.5h1.667a.833.833,0,0,1,0,1.667H17.5A.833.833,0,0,1,16.667,8.333Z" transform="translate(0.002 4.859)"/>
  </g>
</svg>
