<svg id="Group_1786" data-name="Group 1786" xmlns="http://www.w3.org/2000/svg" width="20" height="20" viewBox="0 0 20 20">
  <g id="chart-histogram_1_" data-name="chart-histogram (1)" transform="translate(0 0)">
    <path id="Path_1668" data-name="Path 1668" d="M19.167,18.333h-15a2.5,2.5,0,0,1-2.5-2.5v-15A.833.833,0,1,0,0,.833v15A4.172,4.172,0,0,0,4.167,20h15a.833.833,0,0,0,0-1.667Z" transform="translate(0 0)"/>
    <path id="Path_1669" data-name="Path 1669" d="M5.833,18.5a.833.833,0,0,0,.833-.833V11.833a.833.833,0,1,0-1.667,0v5.833A.833.833,0,0,0,5.833,18.5Z" transform="translate(-0.833 -1.833)"/>
    <path id="Path_1670" data-name="Path 1670" d="M10,9.833v7.5a.833.833,0,0,0,1.667,0v-7.5a.833.833,0,0,0-1.667,0Z" transform="translate(-1.667 -1.5)"/>
    <path id="Path_1671" data-name="Path 1671" d="M15,12.833v5a.833.833,0,0,0,1.667,0v-5a.833.833,0,1,0-1.667,0Z" transform="translate(-2.5 -2)"/>
    <path id="Path_1672" data-name="Path 1672" d="M20,8.833v8.333a.833.833,0,1,0,1.667,0V8.833a.833.833,0,1,0-1.667,0Z" transform="translate(-3.333 -1.333)"/>
    <path id="Path_1673" data-name="Path 1673" d="M5.833,7.5a.833.833,0,0,0,.589-.244L9.411,4.267a.854.854,0,0,1,1.178,0l1.81,1.81a2.5,2.5,0,0,0,3.535,0l4.655-4.655A.833.833,0,1,0,19.411.244L14.756,4.9a.833.833,0,0,1-1.178,0l-1.81-1.809a2.5,2.5,0,0,0-3.535,0L5.244,6.077A.833.833,0,0,0,5.833,7.5Z" transform="translate(-0.833 0)"/>
  </g>
</svg>
