<svg id="Order_history" data-name="Order history" xmlns="http://www.w3.org/2000/svg" width="20" height="20" viewBox="0 0 20 20">
  <path id="box-alt_1_" data-name="box-alt (1)" d="M15.833,0H4.167A4.172,4.172,0,0,0,0,4.167V15.833A4.172,4.172,0,0,0,4.167,20H15.833A4.172,4.172,0,0,0,20,15.833V4.167A4.172,4.172,0,0,0,15.833,0Zm2.5,4.167H12.5v-2.5h3.333A2.5,2.5,0,0,1,18.333,4.167Zm-9.167-2.5h1.667V5.833a.833.833,0,1,1-1.667,0Zm-5,0H7.5v2.5H1.667a2.5,2.5,0,0,1,2.5-2.5ZM15.833,18.333H4.167a2.5,2.5,0,0,1-2.5-2.5v-10H7.5a2.5,2.5,0,0,0,5,0h5.833v10A2.5,2.5,0,0,1,15.833,18.333Zm.833-2.5a.833.833,0,0,1-.833.833h-2.5a.833.833,0,0,1,0-1.667h2.5A.833.833,0,0,1,16.667,15.833Z"/>
</svg>
