<svg id="Settings" xmlns="http://www.w3.org/2000/svg" width="17.995" height="20" viewBox="0 0 17.995 20">
  <g id="settings-2" data-name="settings">
    <path id="Path_1674" data-name="Path 1674" d="M11.333,8a3.333,3.333,0,1,0,3.333,3.333A3.333,3.333,0,0,0,11.333,8Zm0,5A1.667,1.667,0,1,1,13,11.333,1.667,1.667,0,0,1,11.333,13Z" transform="translate(-2.336 -1.333)"/>
    <path id="Path_1675" data-name="Path 1675" d="M17.945,11.583l-.37-.213a7.583,7.583,0,0,0,0-2.742l.37-.213a2.5,2.5,0,1,0-2.5-4.333l-.371.214A7.481,7.481,0,0,0,12.7,2.927V2.5a2.5,2.5,0,1,0-5,0v.427A7.481,7.481,0,0,0,5.327,4.3l-.373-.216a2.5,2.5,0,1,0-2.5,4.333l.37.213a7.583,7.583,0,0,0,0,2.742l-.37.213a2.5,2.5,0,0,0,2.5,4.333l.371-.214A7.481,7.481,0,0,0,7.7,17.072V17.5a2.5,2.5,0,1,0,5,0v-.428A7.481,7.481,0,0,0,15.074,15.7l.373.215a2.5,2.5,0,1,0,2.5-4.333ZM15.822,8.437a5.873,5.873,0,0,1,0,3.125.833.833,0,0,0,.387.944l.9.522a.834.834,0,1,1-.833,1.444l-.9-.523a.833.833,0,0,0-1.012.138,5.82,5.82,0,0,1-2.7,1.563.833.833,0,0,0-.626.807V17.5a.833.833,0,0,1-1.667,0V16.457a.833.833,0,0,0-.626-.807,5.82,5.82,0,0,1-2.7-1.566.833.833,0,0,0-1.013-.138l-.9.523a.833.833,0,1,1-.833-1.443l.9-.522a.833.833,0,0,0,.387-.944,5.873,5.873,0,0,1,0-3.125.833.833,0,0,0-.388-.941l-.9-.522a.834.834,0,0,1,.833-1.444l.9.523a.833.833,0,0,0,1.012-.134,5.82,5.82,0,0,1,2.7-1.562.833.833,0,0,0,.626-.811V2.5a.833.833,0,0,1,1.667,0V3.543a.833.833,0,0,0,.626.808,5.82,5.82,0,0,1,2.7,1.566.833.833,0,0,0,1.012.137l.9-.522a.833.833,0,1,1,.833,1.443l-.9.522a.833.833,0,0,0-.386.941Z" transform="translate(-1.203)"/>
  </g>
</svg>
