<svg xmlns="http://www.w3.org/2000/svg" width="20" height="20" viewBox="0 0 20 20">
  <path id="shop" d="M20,8.333a.823.823,0,0,0-.02-.181L18.9,3.262A4.14,4.14,0,0,0,14.827,0H5.173A4.14,4.14,0,0,0,1.107,3.262L.02,8.152A.823.823,0,0,0,0,8.333v.833a3.32,3.32,0,0,0,.833,2.2v4.464A4.172,4.172,0,0,0,5,20H15a4.172,4.172,0,0,0,4.167-4.167V11.369A3.32,3.32,0,0,0,20,9.167ZM1.667,8.424l1.067-4.8a2.485,2.485,0,0,1,2.44-1.957h.66v2.5a.833.833,0,1,0,1.667,0v-2.5h5v2.5a.833.833,0,0,0,1.667,0v-2.5h.66a2.485,2.485,0,0,1,2.44,1.957l1.067,4.8v.742a1.667,1.667,0,0,1-1.667,1.667h-.833a1.667,1.667,0,0,1-1.667-1.667.833.833,0,0,0-1.667,0,1.667,1.667,0,0,1-1.667,1.667H9.167A1.667,1.667,0,0,1,7.5,9.167a.833.833,0,0,0-1.667,0,1.667,1.667,0,0,1-1.667,1.667H3.333A1.667,1.667,0,0,1,1.667,9.167ZM15,18.333H5a2.5,2.5,0,0,1-2.5-2.5V12.394a3.315,3.315,0,0,0,.833.106h.833a3.325,3.325,0,0,0,2.5-1.131,3.325,3.325,0,0,0,2.5,1.131h1.667a3.325,3.325,0,0,0,2.5-1.131,3.325,3.325,0,0,0,2.5,1.131h.833a3.315,3.315,0,0,0,.833-.106v3.439A2.5,2.5,0,0,1,15,18.333Z" transform="translate(0 0)"/>
</svg>
