<svg xmlns="http://www.w3.org/2000/svg" width="20.2" height="15.2" viewBox="0 0 20.2 15.2">
  <g id="Staff" transform="translate(0.1 0.1)">
    <path id="people-svgrepo-com" d="M18.75,17A1.224,1.224,0,0,0,20,15.75c0-1.25-1.25-5-6.25-5s-6.25,3.75-6.25,5A1.224,1.224,0,0,0,8.75,17ZM8.778,15.75l-.028-.005A3.836,3.836,0,0,1,9.7,13.6,5,5,0,0,1,13.75,12a5.01,5.01,0,0,1,4.05,1.6,3.849,3.849,0,0,1,.95,2.15l-.01,0-.017,0Zm4.972-7.5a2.5,2.5,0,1,0-2.5-2.5A2.5,2.5,0,0,0,13.75,8.25Zm3.75-2.5A3.75,3.75,0,1,1,13.75,2,3.75,3.75,0,0,1,17.5,5.75ZM8.67,11.1a7.35,7.35,0,0,0-1.537-.309q-.44-.042-.883-.041c-5,0-6.25,3.75-6.25,5A1.1,1.1,0,0,0,1.25,17H6.52a2.8,2.8,0,0,1-.27-1.25,5.736,5.736,0,0,1,1.363-3.63A6.614,6.614,0,0,1,8.67,11.1ZM6.15,12A6.866,6.866,0,0,0,5,15.75H1.25A3.836,3.836,0,0,1,2.2,13.6,4.967,4.967,0,0,1,6.15,12ZM1.875,6.375a3.75,3.75,0,1,1,3.75,3.75A3.75,3.75,0,0,1,1.875,6.375Zm3.75-2.5a2.5,2.5,0,1,0,2.5,2.5A2.5,2.5,0,0,0,5.625,3.875Z" transform="translate(0 -2)" stroke="#000" stroke-width="0.2"/>
  </g>
</svg>
